<mxfile host="app.diagrams.net" modified="2020-12-02T13:24:52.470Z" agent="5.0 (Windows NT 10.0; Win64; x64) AppleWebKit/537.36 (KHTML, like Gecko) Chrome/87.0.4280.66 Safari/537.36" etag="UzCS3QbLxxEpI5V_fsoT" version="13.8.7" type="github">
  <diagram id="eAUC9NaxXMHIsp3LWZ7u" name="Page-1">
    <mxGraphModel dx="868" dy="450" grid="1" gridSize="10" guides="1" tooltips="1" connect="1" arrows="1" fold="1" page="1" pageScale="1" pageWidth="827" pageHeight="1169" math="0" shadow="0">
      <root>
        <mxCell id="0" />
        <mxCell id="1" parent="0" />
        <mxCell id="3yPVT0lA5-CykFNIMNDs-1" value="EMPLEADO" style="rounded=1;whiteSpace=wrap;html=1;fillColor=#6a00ff;strokeColor=#3700CC;fontColor=#ffffff;" vertex="1" parent="1">
          <mxGeometry x="167.14" y="100" width="100" height="40" as="geometry" />
        </mxCell>
        <mxCell id="3yPVT0lA5-CykFNIMNDs-2" value="DEPARTAMENTO" style="rounded=1;whiteSpace=wrap;html=1;fillColor=#6a00ff;strokeColor=#3700CC;fontColor=#ffffff;" vertex="1" parent="1">
          <mxGeometry x="580" y="95" width="100" height="40" as="geometry" />
        </mxCell>
        <mxCell id="3yPVT0lA5-CykFNIMNDs-3" value="PROYECTO" style="rounded=1;whiteSpace=wrap;html=1;fillColor=#6a00ff;strokeColor=#3700CC;fontColor=#ffffff;" vertex="1" parent="1">
          <mxGeometry x="440" y="370" width="100" height="40" as="geometry" />
        </mxCell>
        <mxCell id="3yPVT0lA5-CykFNIMNDs-4" value="&lt;u&gt;Id_Proyecto&lt;/u&gt;" style="ellipse;whiteSpace=wrap;html=1;fillColor=#1ba1e2;strokeColor=#006EAF;fontColor=#ffffff;" vertex="1" parent="1">
          <mxGeometry x="334" y="370" width="70" height="40" as="geometry" />
        </mxCell>
        <mxCell id="3yPVT0lA5-CykFNIMNDs-5" value="pk_Empleado" style="ellipse;whiteSpace=wrap;html=1;fillColor=#1ba1e2;strokeColor=#006EAF;fontColor=#ffffff;" vertex="1" parent="1">
          <mxGeometry x="450" y="430" width="80" height="40" as="geometry" />
        </mxCell>
        <mxCell id="3yPVT0lA5-CykFNIMNDs-6" value="&lt;u&gt;pk_Dpto&lt;/u&gt;" style="ellipse;whiteSpace=wrap;html=1;fillColor=#1ba1e2;strokeColor=#006EAF;fontColor=#ffffff;" vertex="1" parent="1">
          <mxGeometry x="570" y="370" width="70" height="40" as="geometry" />
        </mxCell>
        <mxCell id="3yPVT0lA5-CykFNIMNDs-8" value="&lt;u&gt;Id_Empl&lt;/u&gt;" style="ellipse;whiteSpace=wrap;html=1;fillColor=#1ba1e2;strokeColor=#006EAF;fontColor=#ffffff;" vertex="1" parent="1">
          <mxGeometry x="182.14" y="30" width="70" height="40" as="geometry" />
        </mxCell>
        <mxCell id="3yPVT0lA5-CykFNIMNDs-9" value="Dni_Empl" style="ellipse;whiteSpace=wrap;html=1;fillColor=#1ba1e2;strokeColor=#006EAF;fontColor=#ffffff;" vertex="1" parent="1">
          <mxGeometry x="20" y="130" width="70" height="40" as="geometry" />
        </mxCell>
        <mxCell id="3yPVT0lA5-CykFNIMNDs-10" value="Nº SS" style="ellipse;whiteSpace=wrap;html=1;fillColor=#1ba1e2;strokeColor=#006EAF;fontColor=#ffffff;" vertex="1" parent="1">
          <mxGeometry x="89.99999999999999" y="170" width="60" height="40" as="geometry" />
        </mxCell>
        <mxCell id="3yPVT0lA5-CykFNIMNDs-11" value="&lt;u&gt;pk_Proyecto&lt;/u&gt;" style="ellipse;whiteSpace=wrap;html=1;fillColor=#1ba1e2;strokeColor=#006EAF;fontColor=#ffffff;" vertex="1" parent="1">
          <mxGeometry x="300" y="30" width="76" height="40" as="geometry" />
        </mxCell>
        <mxCell id="3yPVT0lA5-CykFNIMNDs-12" value="Cargo" style="ellipse;whiteSpace=wrap;html=1;fillColor=#1ba1e2;strokeColor=#006EAF;fontColor=#ffffff;" vertex="1" parent="1">
          <mxGeometry x="80" y="30" width="60" height="40" as="geometry" />
        </mxCell>
        <mxCell id="3yPVT0lA5-CykFNIMNDs-13" value="Apellido" style="ellipse;whiteSpace=wrap;html=1;fillColor=#1ba1e2;strokeColor=#006EAF;fontColor=#ffffff;" vertex="1" parent="1">
          <mxGeometry x="20" y="70" width="60" height="40" as="geometry" />
        </mxCell>
        <mxCell id="3yPVT0lA5-CykFNIMNDs-16" value="" style="endArrow=none;html=1;strokeColor=#FFFEF7;" edge="1" parent="1">
          <mxGeometry width="50" height="50" relative="1" as="geometry">
            <mxPoint x="320" y="61" as="sourcePoint" />
            <mxPoint x="360" y="61" as="targetPoint" />
          </mxGeometry>
        </mxCell>
        <mxCell id="3yPVT0lA5-CykFNIMNDs-18" value="&lt;u&gt;Id_Dpto&lt;/u&gt;" style="ellipse;whiteSpace=wrap;html=1;fillColor=#1ba1e2;strokeColor=#006EAF;fontColor=#ffffff;" vertex="1" parent="1">
          <mxGeometry x="540" y="30" width="70" height="40" as="geometry" />
        </mxCell>
        <mxCell id="3yPVT0lA5-CykFNIMNDs-19" value="Localizzación" style="ellipse;whiteSpace=wrap;html=1;fillColor=#1ba1e2;strokeColor=#006EAF;fontColor=#ffffff;" vertex="1" parent="1">
          <mxGeometry x="640" y="30" width="80" height="40" as="geometry" />
        </mxCell>
        <mxCell id="3yPVT0lA5-CykFNIMNDs-20" value="Función" style="ellipse;whiteSpace=wrap;html=1;fillColor=#1ba1e2;strokeColor=#006EAF;fontColor=#ffffff;" vertex="1" parent="1">
          <mxGeometry x="730" y="90" width="60" height="40" as="geometry" />
        </mxCell>
        <mxCell id="3yPVT0lA5-CykFNIMNDs-21" value="" style="endArrow=none;html=1;strokeColor=#FFFEF7;" edge="1" parent="1">
          <mxGeometry width="50" height="50" relative="1" as="geometry">
            <mxPoint x="584" y="400" as="sourcePoint" />
            <mxPoint x="624" y="400" as="targetPoint" />
          </mxGeometry>
        </mxCell>
        <mxCell id="3yPVT0lA5-CykFNIMNDs-22" value="&amp;nbsp; Trabaja_&lt;br&gt;en" style="rhombus;whiteSpace=wrap;html=1;fillColor=#60a917;strokeColor=#2D7600;fontColor=#ffffff;" vertex="1" parent="1">
          <mxGeometry x="440" y="90" width="60" height="59" as="geometry" />
        </mxCell>
        <mxCell id="3yPVT0lA5-CykFNIMNDs-23" value="Realiza" style="rhombus;whiteSpace=wrap;html=1;fillColor=#60a917;strokeColor=#2D7600;fontColor=#ffffff;" vertex="1" parent="1">
          <mxGeometry x="440" y="230" width="60" height="49" as="geometry" />
        </mxCell>
      </root>
    </mxGraphModel>
  </diagram>
</mxfile>
